<?xml version="1.0" encoding="utf-8"?>
<!-- Generator: Adobe Illustrator 17.1.0, SVG Export Plug-In . SVG Version: 6.00 Build 0)  -->
<!DOCTYPE svg PUBLIC "-//W3C//DTD SVG 1.1//EN" "http://www.w3.org/Graphics/SVG/1.1/DTD/svg11.dtd">
<svg version="1.1" id="Layer_2" xmlns="http://www.w3.org/2000/svg" xmlns:xlink="http://www.w3.org/1999/xlink" x="0px" y="0px" viewBox="0 0 640 192" enable-background="new 0 0 640 192" xml:space="preserve" preserveAspectRatio="xMinYMin meet">
<path fill="#FFFFFF" d="M139,127.8h-11V64h15.4c12.3,0,18.6,5.2,18.6,18.8c0,10.3-4,14.4-7.7,16.1l9.3,28.9h-11.1l-7.8-26.4
	c-1.4,0.2-3.7,0.3-5.7,0.3V127.8 M139,92.6h3.9c5.9,0,8.1-2.2,8.1-9.8c0-7.6-2.2-9.8-8.1-9.8H139V92.6z"/>
<polyline fill="#FFFFFF" points="169.2,127.8 169.2,64 198.5,64 198.5,73.5 180.2,73.5 180.2,89.9 194.3,89.9 194.3,99.5 
	180.2,99.5 180.2,118.2 198.5,118.2 198.5,127.8 169.2,127.8 169.2,127.8 "/>
<polyline fill="#FFFFFF" points="232.2,64 243,64 229.6,127.8 218.7,127.8 205.3,64 216.1,64 224.1,108.2 224.2,108.2 232.2,64 "/>
<polyline fill="#FFFFFF" points="250.3,127.8 250.3,64 279.6,64 279.6,73.5 261.2,73.5 261.2,89.9 275.4,89.9 275.4,99.5 
	261.2,99.5 261.2,118.2 279.6,118.2 279.6,127.8 250.3,127.8 250.3,127.8 "/>
<path fill="#FFFFFF" d="M297.8,127.8h-11V64h15.4c12.3,0,18.6,5.2,18.6,18.8c0,10.3-4,14.4-7.7,16.1l9.3,28.9h-11.1l-7.8-26.4
	c-1.4,0.2-3.7,0.3-5.7,0.3V127.8L297.8,127.8 M297.8,92.6h3.9c5.9,0,8.1-2.2,8.1-9.8c0-7.6-2.2-9.8-8.1-9.8h-3.9V92.6z"/>
<path fill="#FFFFFF" d="M328.1,64h16.3c11.8,0,17,6,17,16.9c0,5.5-2.3,11.2-7.6,13.3c5.6,2.5,8.8,6.9,8.8,15.1
	c0,10.5-4.7,18.5-17.1,18.5h-17.3V64 M338.5,90.1h4c4.2,0,7.3-2.8,7.3-8.1c0-5.9-2.3-9-7.2-9h-4.2L338.5,90.1z M338.5,118.8h4.6
	c5.8,0,8-3.4,8-9.8c0-6.5-2.5-9.8-9-9.8h-3.5L338.5,118.8z"/>
<polyline fill="#BCBEC0" points="370.3,127.8 370.3,64 380.5,64 393.8,100.5 394,100.5 394,64 403.9,64 403.9,127.8 394.3,127.8 
	380.4,87.9 380.2,87.9 380.2,127.8 370.3,127.8 "/>
<path fill="#BCBEC0" d="M420.4,127.8h-10.6L421.6,64h13.6l11.8,63.8h-10.6l-1.9-14.1h-12L420.4,127.8 M424,104.1h8.8l-4.3-27.4h-0.2
	L424,104.1z"/>
<polyline fill="#BCBEC0" points="455.8,73.5 445.1,73.5 445.1,64 477.3,64 477.3,73.5 466.7,73.5 466.7,127.8 455.8,127.8 
	455.8,73.5 "/>
<rect x="484.6" y="64" fill="#BCBEC0" width="11" height="63.8"/>
<path fill="#BCBEC0" d="M502.9,79.4c0-9,5.3-16.3,16.8-16.3c11.5,0,16.8,7.3,16.8,16.3v32.9c0,9-5.3,16.3-16.8,16.3
	c-11.5,0-16.8-7.3-16.8-16.3V79.4 M513.8,112c0,4.8,1.4,7.1,5.8,7.1c4.4,0,5.8-2.3,5.8-7.1V79.7c0-4.8-1.4-7.1-5.8-7.1
	c-4.4,0-5.8,2.3-5.8,7.1V112z"/>
<polyline fill="#BCBEC0" points="543.7,127.8 543.7,64 553.9,64 567.2,100.5 567.4,100.5 567.4,64 577.3,64 577.3,127.8 
	567.7,127.8 553.8,87.9 553.6,87.9 553.6,127.8 543.7,127.8 "/>
<polyline fill="#E43727" points="113.1,86.4 82.7,86.3 73.1,57.3 73.1,57.3 63.7,86.3 33.3,86.4 33.4,86.4 57.9,104.2 57.9,104.2 
	57.9,104.2 48.4,133.3 48.5,133.3 73.3,115.4 97.9,133.3 88.4,104.3 113.1,86.4 "/>
<path fill="#FFFFFF" d="M587.4,68c0-0.9,0.2-1.8,0.5-2.7c0.4-0.8,0.9-1.6,1.5-2.2c0.6-0.6,1.3-1.1,2.2-1.5c0.8-0.4,1.7-0.5,2.7-0.5
	c1,0,1.8,0.2,2.7,0.5c0.8,0.4,1.6,0.9,2.2,1.5c0.6,0.6,1.1,1.3,1.5,2.2c0.4,0.8,0.5,1.7,0.5,2.7c0,1-0.2,1.8-0.5,2.7
	c-0.4,0.8-0.9,1.6-1.5,2.2c-0.6,0.6-1.3,1.1-2.2,1.5c-0.8,0.4-1.7,0.5-2.7,0.5c-0.9,0-1.8-0.2-2.7-0.5c-0.8-0.4-1.6-0.9-2.2-1.5
	c-0.6-0.6-1.1-1.3-1.5-2.2C587.5,69.9,587.4,69,587.4,68z M599.8,68c0-0.8-0.1-1.5-0.4-2.2c-0.3-0.7-0.7-1.3-1.2-1.8
	c-0.5-0.5-1.1-0.9-1.7-1.2c-0.7-0.3-1.4-0.4-2.1-0.4c-0.8,0-1.5,0.1-2.1,0.4c-0.7,0.3-1.3,0.7-1.7,1.2c-0.5,0.5-0.9,1.1-1.2,1.8
	c-0.3,0.7-0.4,1.4-0.4,2.2c0,0.8,0.1,1.5,0.4,2.2c0.3,0.7,0.7,1.3,1.2,1.8c0.5,0.5,1.1,0.9,1.7,1.2c0.7,0.3,1.4,0.4,2.1,0.4
	c0.8,0,1.5-0.1,2.1-0.4c0.7-0.3,1.3-0.7,1.7-1.2c0.5-0.5,0.9-1.1,1.2-1.8C599.6,69.5,599.8,68.8,599.8,68z M591.6,64h3
	c1.8,0,2.8,0.8,2.8,2.3c0,0.4-0.1,0.7-0.2,1c-0.1,0.3-0.3,0.5-0.4,0.7c-0.2,0.2-0.4,0.3-0.7,0.4c-0.2,0.1-0.5,0.2-0.8,0.2l2.3,3.5
	h-1.5l-2.3-3.5h-1v3.5h-1.3V64z M592.9,67.4h1.4c0.6,0,1.1-0.1,1.4-0.3c0.3-0.2,0.5-0.5,0.5-0.9c0-0.4-0.1-0.6-0.4-0.8
	c-0.3-0.2-0.6-0.3-1.1-0.3h-1.8V67.4z"/>
</svg>
